<?xml version="1.0" encoding="UTF-8"?>
<svg version="1.1" xmlns="http://www.w3.org/2000/svg" width="1024" height="1024">
<path d="M0 0 C337.92 0 675.84 0 1024 0 C1024 337.92 1024 675.84 1024 1024 C686.08 1024 348.16 1024 0 1024 C0 686.08 0 348.16 0 0 Z " fill="#FEFEFE" transform="translate(0,0)"/>
<path d="M0 0 C0.49910219 5.93708124 -0.54924637 8.53122946 -4.1875 13.1875 C-5.1120396 14.41238059 -6.03238235 15.64043663 -6.94921875 16.87109375 C-7.44341309 17.53093262 -7.93760742 18.19077148 -8.44677734 18.87060547 C-34.86342882 55.08658067 -53.50130374 96.80036756 -61 141 C-59.98679687 140.566875 -58.97359375 140.13375 -57.9296875 139.6875 C-56.57835603 139.12444522 -55.22678041 138.56197613 -53.875 138 C-53.20984375 137.71382812 -52.5446875 137.42765625 -51.859375 137.1328125 C-47.76367024 135.44634583 -44.51320152 134.56102599 -40 135 C-39 136 -39 136 -38.78662109 138.72143555 C-39.0177451 142.27265323 -39.80207912 144.30714975 -41.4140625 147.45703125 C-41.92517578 148.47877441 -42.43628906 149.50051758 -42.96289062 150.55322266 C-43.78563477 152.16656494 -43.78563477 152.16656494 -44.625 153.8125 C-53.72073058 172.20342894 -62.26114492 192.57978365 -62.0625 213.4375 C-62.05347656 214.67371094 -62.04445312 215.90992188 -62.03515625 217.18359375 C-62.02355469 218.11300781 -62.01195312 219.04242188 -62 220 C-61.56768066 219.53215088 -61.13536133 219.06430176 -60.68994141 218.58227539 C-44.15740831 200.73460453 -44.15740831 200.73460453 -36 194 C-35.31421875 193.43023437 -34.6284375 192.86046875 -33.921875 192.2734375 C-32 191 -32 191 -29 191 C-28.82164819 197.13692354 -29.68081203 202.80217242 -30.7578125 208.83007812 C-33.37503517 224.28477799 -34.33641735 239.76414846 -34.26074219 255.42163086 C-34.24987528 258.09316006 -34.2608005 260.76403584 -34.2734375 263.43554688 C-34.27947294 272.14136867 -34.13743816 280.49771896 -32 289 C-31.74943848 288.39752441 -31.49887695 287.79504883 -31.24072266 287.17431641 C-26.75772355 276.46187998 -22.19334368 265.85506236 -16.5625 255.6875 C-16.15016113 254.9361377 -15.73782227 254.18477539 -15.31298828 253.41064453 C-13.44885768 250.12593111 -12.18819497 248.12546332 -9 246 C-7.2230348 249.11082411 -6.63738567 251.68110349 -6.2890625 255.234375 C-6.18086182 256.27142578 -6.07266113 257.30847656 -5.96118164 258.37695312 C-5.8502417 259.49005859 -5.73930176 260.60316406 -5.625 261.75 C-3.39452348 282.43496287 -0.94621652 304.2678274 6 324 C7.75384098 321.36923852 8.71317053 319.32763958 9.76953125 316.39453125 C10.10146484 315.49283203 10.43339844 314.59113281 10.77539062 313.66210938 C11.45915087 311.78337831 12.13893376 309.90319425 12.81445312 308.02148438 C14.9029065 302.3734406 17.10026989 296.6785088 21 292 C21.66 292 22.32 292 23 292 C23.41666667 293.66666667 23.83333333 295.33333333 24.25 297 C24.52585938 298.09828125 24.80171875 299.1965625 25.0859375 300.328125 C25.70508436 302.81529613 26.31416452 305.30499108 26.9140625 307.796875 C35.21425012 342.17845922 49.61116837 377.22343546 74.3828125 403.109375 C76 405 76 405 76 407 C76.66 407 77.32 407 78 407 C78.21140625 406.48050781 78.4228125 405.96101563 78.640625 405.42578125 C80.5814034 401.96249566 83.1333865 399.15933768 85.75 396.1875 C86.32854736 395.52661377 86.90709473 394.86572754 87.50317383 394.18481445 C96.83350471 383.58564902 106.53704349 373.38053758 116.5 363.375 C117.25369873 362.61662842 118.00739746 361.85825684 118.78393555 361.0769043 C129.89311593 350 129.89311593 350 133 350 C133 349.34 133 348.68 133 348 C132.16275391 347.64421875 132.16275391 347.64421875 131.30859375 347.28125 C128.46391754 345.70247877 126.42131753 343.74176343 124.0625 341.5 C119.28900554 337.06194028 114.32876936 333.06585992 109.06469727 329.22460938 C107.675994 328.19378454 106.33295468 327.10196571 105 326 C105 325.34 105 324.68 105 324 C110.47700309 321.46873641 115.90516365 319.83921166 121.75 318.375 C122.71429932 318.1284668 123.67859863 317.88193359 124.67211914 317.62792969 C126.85849881 317.06913003 129.04546983 316.51264092 131.23291016 315.95800781 C135.49483866 314.87415769 139.75351185 313.77804881 144.01171875 312.6796875 C150.13094637 311.10196696 156.25041457 309.52520631 162.37109375 307.953125 C163.64911865 307.62473633 164.92714355 307.29634766 166.24389648 306.95800781 C167.48341064 306.64186523 168.7229248 306.32572266 170 306 C170.68546906 305.81320679 171.37093811 305.62641357 172.07717896 305.43395996 C175.80233503 304.44154365 179.13953022 303.75872064 183 304 C179.19654237 296.84285958 174.8957889 290.07664923 170.4375 283.3125 C169.4484668 281.80333008 169.4484668 281.80333008 168.43945312 280.26367188 C167.79814453 279.28591797 167.15683594 278.30816406 166.49609375 277.30078125 C165.88878418 276.37346191 165.28147461 275.44614258 164.65576172 274.49072266 C163.31770062 272.47790943 161.93815097 270.51012413 160.53515625 268.54296875 C159 266 159 266 159 262 C166.01506399 261.72790055 172.54219017 262.76313217 179.4375 264 C180.66146484 264.21567627 181.88542969 264.43135254 183.14648438 264.65356445 C194.78456882 266.72156967 206.39383511 268.94847869 218 271.1875 C218.90861786 271.36144287 219.81723572 271.53538574 220.75338745 271.71459961 C223.35750765 272.21448887 225.96016724 272.72136605 228.5625 273.23046875 C229.3415419 273.37929001 230.1205838 273.52811127 230.92323303 273.68144226 C234.80515445 274.44963039 238.38746512 275.37122963 242 277 C241.764021 276.37770508 241.52804199 275.75541016 241.28491211 275.11425781 C237.09278169 264.04223902 232.92229688 252.9611065 228.9375 241.8125 C228.63900146 240.99491211 228.34050293 240.17732422 228.03295898 239.33496094 C226.65660799 235.43961242 225.60456754 232.19831479 226 228 C230.22173681 228.67835091 234.00921503 230.05370158 237.9375 231.6875 C238.65276855 231.98438721 239.36803711 232.28127441 240.10498047 232.5871582 C265.80102537 243.43993357 290.96756748 255.8387746 315 270 C314.77449463 269.09797852 314.77449463 269.09797852 314.54443359 268.17773438 C314.33125488 267.32501953 314.11807617 266.47230469 313.8984375 265.59375 C313.65818848 264.6332373 313.41793945 263.67272461 313.17041016 262.68310547 C312.63531337 260.54173287 312.10114997 258.40012683 311.56787109 256.25830078 C310.15536872 250.59091428 308.72781288 244.92822531 307.265625 239.2734375 C306.99057129 238.20029297 306.71551758 237.12714844 306.43212891 236.02148438 C305.90368367 233.96141112 305.36971268 231.90274554 304.82958984 229.84570312 C303.6267977 225.13133873 302.6527343 220.91132922 303 216 C308.09735642 217.63879506 312.04367658 220.68418799 316.3125 223.8125 C317.49694702 224.67439941 317.49694702 224.67439941 318.70532227 225.55371094 C326.09308157 230.97843917 333.20877427 236.70812404 340.26025391 242.56005859 C342.70011101 244.5794632 345.16419564 246.56870961 347.625 248.5625 C354.17953137 253.9288988 360.58292804 259.47087172 367 265 C369.31 266.98 371.62 268.96 374 271 C374 258.46 374 245.92 374 233 C377 233 377 233 378.5078125 234.14453125 C382.82321606 238.59544265 386.73707837 243.2907193 390.62109375 248.12109375 C392.95377216 250.94405597 395.38247205 253.63036612 397.875 256.3125 C403.1117019 262.01054968 407.84629145 268.02689096 412.56933594 274.14892578 C415.05197157 277.36110041 417.55733596 280.55538694 420.0625 283.75 C420.527771 284.34659424 420.99304199 284.94318848 421.47241211 285.55786133 C423.23665952 287.81099262 424.97434336 289.97434336 427 292 C427.66 284.41 428.32 276.82 429 269 C430.32 268.67 431.64 268.34 433 268 C433.43231934 268.86987549 433.86463867 269.73975098 434.31005859 270.63598633 C435.96669508 273.96782211 437.62628422 277.29818072 439.28662109 280.62817383 C439.99506784 282.0499937 440.70278825 283.47217579 441.40966797 284.89477539 C445.89635776 293.92271415 450.48990176 302.88541559 455.20219421 311.79772949 C459.76661161 320.43388658 464.23272814 329.11940283 468.6875 337.8125 C469.11520691 338.64573792 469.54291382 339.47897583 469.98358154 340.33746338 C475.13893601 350.38211259 480.23800993 360.4511079 485.24291992 370.5715332 C492.8904598 386.03559626 500.53680023 401.11673561 511.28515625 414.6796875 C513 417 513 417 514 420 C514.66 420 515.32 420 516 420 C517.69362514 421.64523585 519.35104156 423.31093176 521 425 C529.45430751 433.45430751 541.96667964 439.99158538 554 440.375 C564.53225428 440.2804343 573.21637576 435.86704793 581 429 C581.96808594 428.2059375 582.93617188 427.411875 583.93359375 426.59375 C589.76907778 421.68360341 589.76907778 421.68360341 592.5234375 414.796875 C592.42692382 412.73453002 592.28974017 410.67354976 592.10546875 408.6171875 C592 406 592 406 593.6875 402.75 C597.44855372 400.76302822 599.07775897 400.92004781 603.25 401.125 C609.60663373 401.38183369 612.0801243 400.10508344 616.71484375 395.94140625 C624.97055204 388.92758229 635.67330029 386.35005858 646 384 C646.88945313 383.773125 647.77890625 383.54625 648.6953125 383.3125 C671.21978761 378.22860593 696.76633371 383.00909407 718 391 C718.96752197 391.36254883 718.96752197 391.36254883 719.95458984 391.73242188 C732.7585061 396.66806575 744.69101881 403.6034529 756.69482422 410.18798828 C759.89797492 411.94406632 763.10614117 413.6905615 766.31640625 415.43359375 C776.74667844 421.10148268 776.74667844 421.10148268 779.78271484 422.79785156 C781.20685394 423.56997895 782.65490299 424.30032044 784.12744141 424.97558594 C786.05078125 425.8984375 786.05078125 425.8984375 789 428 C790.9342969 433.67854304 789.43773012 438.20425394 787.5 443.625 C787.22518799 444.41261719 786.95037598 445.20023438 786.66723633 446.01171875 C781.28583903 460.9322455 774.07658711 473.53741099 759.36938477 480.61450195 C753.75624057 482.92263856 747.98540226 484.12752921 742.0625 485.375 C701.23294525 494.65503505 669.71912741 516.55220355 644.26977539 549.57080078 C640.26431146 554.74266375 636.01769057 559.67517265 631.70458984 564.59155273 C628.46592486 568.28839157 625.32239289 572.03718519 622.25 575.875 C618.69399269 580.31670429 614.81224265 584.15952923 610.5546875 587.9296875 C608.77529027 589.86162704 608.77529027 589.86162704 609.0234375 592.19921875 C617.54697666 616.64472907 631.63696838 639.3152036 649.3828125 658.07421875 C651 660 651 660 651 662 C651.556875 662.226875 652.11375 662.45375 652.6875 662.6875 C655.66159588 664.37550036 657.72008865 666.46676517 660 669 C660 669.66 660 670.32 660 671 C660.97235596 670.98428955 661.94471191 670.9685791 662.9465332 670.95239258 C666.60497529 670.89748725 670.26338213 670.86343317 673.92211914 670.83520508 C675.49607497 670.82025483 677.06999015 670.79988706 678.64379883 670.77368164 C690.9981675 670.57334053 703.18701811 670.44499393 712.65625 679.6015625 C716.20956325 683.40628942 717.22888537 685.78157809 718 691 C709.51428212 691.258112 701.03027818 691.45190573 692.54157066 691.56993389 C688.59707678 691.626666 684.65532035 691.70320179 680.71240234 691.82983398 C661.9263623 692.41707543 646.63407886 692.07189742 630.29432678 681.46844482 C627.0648959 679.40150253 623.71701302 677.56972057 620.3605957 675.71878052 C597.69826583 663.08362276 573.9033031 646.58350466 556.41015625 627.2421875 C554.94521695 625.6627753 554.94521695 625.6627753 552.0625 626.125 C547.77451119 626.93917509 543.56071632 628.12118171 539.35546875 629.28125 C534.93118855 630.22894215 530.50392641 630.62043996 526 631 C531.56210433 643.23838136 537.2483633 654.98284764 545 666 C545.41830078 666.70560059 545.83660156 667.41120117 546.26757812 668.13818359 C547.88096071 670.23852956 547.88096071 670.23852956 550.56860352 670.49829102 C551.57850342 670.50014404 552.58840332 670.50199707 553.62890625 670.50390625 C555.30629883 670.53194336 555.30629883 670.53194336 557.01757812 670.56054688 C558.18740234 670.56119141 559.35722656 670.56183594 560.5625 670.5625 C572.63233068 670.61015303 582.89436353 671.35593957 592 680 C595.20494056 683.92605219 596.2016618 686.01727296 596 691 C586.6723017 691.20943037 577.34542429 691.36889232 568.01587963 691.46630955 C563.68266885 691.51308952 559.3510776 691.57643112 555.01879883 691.67895508 C550.83001862 691.77745169 546.64278586 691.83070163 542.45293617 691.85389519 C540.86248749 691.87040114 539.27211434 691.90263442 537.68233299 691.95157051 C529.47037165 692.19406946 523.35045274 692.07041548 516.65600586 686.62670898 C515.07822128 685.11085979 513.52254434 683.57132482 512 682 C510.83466815 681.01402797 509.65865382 680.04011926 508.4609375 679.09375 C495.09251503 667.9347043 482.73273716 655.72082876 472 642 C470.20156679 639.8214925 468.38226267 637.66070333 466.5625 635.5 C464.22000951 632.71393932 462.0193645 630.02904676 460 627 C457.08388346 625.8452029 457.08388346 625.8452029 453.5625 624.875 C431.75684921 618.04543612 412.10525427 606.00417535 395 591 C393.08811537 589.4524069 391.17150648 587.91063018 389.25 586.375 C385.30280055 583.15834392 381.64871788 579.81012423 378.14453125 576.1171875 C376.2605888 574.25726617 374.33078949 572.54448434 372.32421875 570.8203125 C366.83466708 566.05522193 361.80424829 560.85210235 356.7109375 555.671875 C351.97822189 550.89036851 347.12807107 546.35377666 342 542 C341.09169434 541.21592773 341.09169434 541.21592773 340.16503906 540.41601562 C326.98691747 529.10426236 313.02168483 518.47625213 296 514 C295.54898926 514.8504187 295.54898926 514.8504187 295.08886719 515.71801758 C283.25827649 537.93726189 270.81901413 558.87407088 253.5234375 577.2890625 C251.42580917 579.54255176 249.4194089 581.83340164 247.4375 584.1875 C235.69962135 597.6061547 219.9844608 609.12359903 204 617 C203.34 617 202.68 617 202 617 C212.98373236 633.18502361 224.74602536 648.8007169 236.68823242 664.28686523 C238 666 238 666 239.23364258 668.18359375 C240.94829256 670.30863355 240.94829256 670.30863355 244.10351562 670.49829102 C245.35841797 670.50014404 246.61332031 670.50199707 247.90625 670.50390625 C248.58619019 670.51332748 249.26613037 670.52274872 249.9666748 670.53245544 C252.14475375 670.5611152 254.32174804 670.56418745 256.5 670.5625 C270.37843078 670.58599621 282.52874449 670.75957377 293 681 C298 686.71428571 298 686.71428571 298 691 C288.57653585 691.23297292 279.15408095 691.41001341 269.72835255 691.51812172 C265.350166 691.57004289 260.97396672 691.64031001 256.59692383 691.75439453 C252.36271219 691.8640499 248.13039586 691.92304407 243.89487267 691.94877243 C242.28927487 691.96707537 240.68376649 692.00281599 239.07898903 692.05730057 C226.38968469 692.47049725 220.33843476 689.65368243 211 681 C209.22504034 679.61672154 207.43721447 678.2495451 205.62890625 676.91015625 C179.49145449 657.06215506 179.49145449 657.06215506 167.60913086 646.91064453 C164.47247138 644.23276285 161.29933015 641.61817013 158.0625 639.0625 C153.81537589 635.69553648 149.6788 632.21205876 145.5625 628.6875 C144.95865479 628.17131104 144.35480957 627.65512207 143.73266602 627.12329102 C141.06358104 624.82812671 138.46707695 622.51022211 136 620 C138.35160156 610.31234834 141.68191691 600.96672439 144.98803711 591.57470703 C145.93715723 588.87597463 146.87813043 586.17449736 147.81835938 583.47265625 C148.42920191 581.72899648 149.04051416 579.98550117 149.65234375 578.2421875 C149.92852036 577.4481955 150.20469696 576.65420349 150.48924255 575.83615112 C152.40005994 570.43078865 154.60130839 565.20664598 157 560 C156.34 560 155.68 560 155 560 C155 560.66 155 561.32 155 562 C126.43038077 589.05368025 89.26188934 604.70738588 50.875 610.6875 C50.0600708 610.82526855 49.2451416 610.96303711 48.40551758 611.10498047 C44.10378118 611.77412999 40.24310803 612.01891433 35.90234375 611.60546875 C30.45791158 611.25142707 25.7921261 611.10119158 21 614 C14.39543904 621.44501841 10.11385973 630.66137012 5.74169922 639.52832031 C3.65758892 643.6825183 1.34024119 647.62724059 -1.125 651.5625 C-4.81281194 657.67290964 -8.41932806 663.82624845 -12 670 C-11.25427734 670.01458252 -10.50855469 670.02916504 -9.74023438 670.04418945 C-6.3263296 670.11915338 -2.91335131 670.21565438 0.5 670.3125 C1.67304688 670.33505859 2.84609375 670.35761719 4.0546875 670.38085938 C12.57115025 670.6440085 20.00928466 671.70972893 27 677 C30.57610443 680.98132873 32.73876708 684.51410875 33 690 C31.26858507 691.73141493 29.04249956 691.11977579 26.73521423 691.12442017 C25.98139969 691.12082489 25.22758514 691.11722961 24.45092773 691.11352539 C23.26564987 691.11374443 23.26564987 691.11374443 22.056427 691.1139679 C19.43212178 691.11326857 16.80788664 691.10547527 14.18359375 691.09765625 C12.36898335 691.09579214 10.55437244 691.0943682 8.73976135 691.09336853 C3.9540977 691.08954279 -0.8315358 691.07971204 -5.6171875 691.06866455 C-10.49674064 691.05845163 -15.37629864 691.05387117 -20.25585938 691.04882812 C-29.83725286 691.03808982 -39.41862393 691.02101273 -49 691 C-48.51627534 685.39147722 -47.92447838 679.96064875 -46.58203125 674.48046875 C-46.30037109 673.30887207 -46.01871094 672.13727539 -45.72851562 670.93017578 C-45.42623047 669.69509277 -45.12394531 668.46000977 -44.8125 667.1875 C-44.16777795 664.5025742 -43.5299606 661.81604528 -42.89453125 659.12890625 C-42.73356964 658.44894592 -42.57260803 657.7689856 -42.4067688 657.06842041 C-40.81094072 650.27991775 -39.38915862 643.4586045 -38 636.625 C-25.59355222 575.78065665 -25.59355222 575.78065665 -21 562 C-19.2984375 561.4121875 -19.2984375 561.4121875 -17.5625 560.8125 C-11.74626833 558.80118281 -7.55330749 555.03967219 -3 551 C-2.195625 550.29101562 -1.39125 549.58203125 -0.5625 548.8515625 C18.36421307 531.07743773 29.76475214 505.74217145 41.4453125 483.0078125 C44.16850561 477.73932331 46.95377052 472.50322537 49.75415039 467.27539062 C52.40560744 462.27980843 54.76359012 457.19424231 57 452 C56.39051514 451.75765625 55.78103027 451.5153125 55.15307617 451.265625 C16.88391534 436.00930406 -18.19865064 416.78913923 -48 388 C-48.70737305 387.3198584 -49.41474609 386.6397168 -50.14355469 385.93896484 C-59.36216455 377.03341756 -68.14506572 368.07920339 -75.72900391 357.72851562 C-77.0640561 355.91288567 -78.42637073 354.12010669 -79.79296875 352.328125 C-86.16782093 343.89962916 -91.80633815 335.19927645 -97 326 C-97.37366699 325.34837891 -97.74733398 324.69675781 -98.13232422 324.02539062 C-127.8107034 271.93319075 -133.00309062 210.38682162 -118 153 C-107.25612533 114.01336523 -86.36307434 77.91217442 -59.0390625 48.22265625 C-57.18749705 46.20437897 -55.40167 44.14650865 -53.625 42.0625 C-46.70199855 34.1275517 -39.09353324 26.7315147 -31 20 C-30.43120117 19.52272461 -29.86240234 19.04544922 -29.27636719 18.55371094 C-7.1078623 0 -7.1078623 0 0 0 Z " fill="#010101" transform="translate(206,147)"/>
<path d="M0 0 C11.42520872 9.74789084 20.20979801 20.98527118 28.60644531 33.37060547 C29.04408203 34.0111084 29.48171875 34.65161133 29.93261719 35.31152344 C35.0738245 42.85289656 40.01223458 50.52793365 44.98144531 58.18310547 C47.18770761 61.58029024 49.39584056 64.97624471 51.60644531 68.37060547 C52.11997559 69.15935059 52.63350586 69.9480957 53.16259766 70.76074219 C62.03166109 84.34247619 71.07504595 97.97372566 82.27832031 109.76904297 C83.60644531 111.37060547 83.60644531 111.37060547 83.60644531 113.37060547 C84.26644531 113.37060547 84.92644531 113.37060547 85.60644531 113.37060547 C87.26269531 115.08544922 87.26269531 115.08544922 89.10644531 117.30810547 C91.4957153 120.29105725 91.4957153 120.29105725 94.60644531 122.37060547 C93.03459441 126.22878496 90.56186429 128.48086246 87.60644531 131.37060547 C83.54768307 135.61341659 79.93739603 140.09592803 76.60644531 144.93310547 C76.00832031 145.80064453 75.41019531 146.66818359 74.79394531 147.56201172 C71.95574686 154.27472451 75.9531243 161.40214774 78.48144531 167.74560547 C81.03524212 174.23767502 83.47687518 180.72561442 85.60644531 187.37060547 C73.97220092 186.14023437 63.06740478 178.08254748 53.98144531 171.18310547 C53.36293701 170.71614258 52.74442871 170.24917969 52.10717773 169.76806641 C37.10023903 157.98906416 23.92681861 143.79013312 10.56591797 130.23413086 C2.23935191 121.79451435 -5.98919455 113.61667104 -15.39355469 106.37060547 C-16.59981969 105.38485212 -17.80333321 104.39571322 -19.00292969 103.40185547 C-31.75602282 93.04566241 -45.18661599 85.5208246 -60.39355469 79.37060547 C-61.80701172 78.76925781 -61.80701172 78.76925781 -63.24902344 78.15576172 C-85.63720712 69.18016614 -110.46191402 70.63142412 -132.51855469 79.64794922 C-148.51522816 86.55886268 -162.23281188 97.4728347 -175.67089844 108.36669922 C-178.65790028 110.78726779 -181.67796208 113.16055393 -184.71484375 115.51806641 C-190.76204641 120.21541676 -196.62645859 125.0815276 -202.41625977 130.09228516 C-207.30583468 134.31908943 -212.3177203 138.36945914 -217.39355469 142.37060547 C-219.26956267 143.86934463 -221.14457936 145.36932552 -223.01855469 146.87060547 C-224.47688802 148.03727214 -225.93522135 149.2039388 -227.39355469 150.37060547 C-228.05355469 150.04060547 -228.71355469 149.71060547 -229.39355469 149.37060547 C-228.88308594 148.72478516 -228.37261719 148.07896484 -227.84667969 147.41357422 C-221.31687282 138.95029617 -215.66052959 130.04603171 -210.01904297 120.97412109 C-207.25497968 116.54697016 -204.44890571 112.146668 -201.64355469 107.74560547 C-201.0631543 106.83504395 -200.48275391 105.92448242 -199.88476562 104.98632812 C-198.6787234 103.09445209 -197.47250267 101.20268984 -196.26611328 99.31103516 C-194.33178727 96.27361371 -192.40351059 93.23240581 -190.47558594 90.19091797 C-127.98015373 -8.20890219 -127.98015373 -8.20890219 -76.26855469 -20.56689453 C-74.31533376 -20.94824931 -72.35725191 -21.30628974 -70.39355469 -21.62939453 C-69.66007813 -21.75830078 -68.92660156 -21.88720703 -68.17089844 -22.02001953 C-43.99876169 -25.67227081 -18.4484664 -15.18094806 0 0 Z " fill="#FDFDFD" transform="translate(569.3935546875,562.62939453125)"/>
<path d="M0 0 C-3.23257893 10.52002133 -8.18804761 21.14187711 -18 27 C-24.23006103 29.517983 -30.79292174 30.75978075 -37.3515625 32.10546875 C-77.73569298 40.41863963 -111.06761232 60.47635778 -138.1171875 91.83203125 C-140.2157532 94.24842951 -142.354397 96.62529024 -144.5 99 C-147.11247763 101.89301214 -149.70288562 104.79938235 -152.25 107.75 C-160.93359297 117.65974846 -169.56543475 126.88762204 -180 135 C-181.77182293 136.49883095 -183.54264148 137.99884993 -185.3125 139.5 C-204.4577268 155.08081222 -226.86520807 165.96048089 -251 171 C-243.05333015 119.53585242 -218.71770024 66.02981624 -176.12646484 34.27319336 C-124.23361268 -3.4493079 -61.17577728 -0.30410106 0 0 Z " fill="#FDFDFD" transform="translate(982,588)"/>
<path d="M0 0 C7.26 0 14.52 0 22 0 C22.33 1.65 22.66 3.3 23 5 C19.2984374 7.4928891 17.10951787 8.93836012 12.625 9.1875 C7.58067943 7.53505016 3.87576433 4.58574115 0 1 C0 0.67 0 0.34 0 0 Z " fill="#F5F5F5" transform="translate(899,562)"/>
<path d="M0 0 C0.33 0 0.66 0 1 0 C1 7.26 1 14.52 1 22 C0.01 21.67 -0.98 21.34 -2 21 C-1.67 20.34 -1.34 19.68 -1 19 C-0.84932786 17.5534758 -0.75138964 16.1012066 -0.68359375 14.6484375 C-0.64169922 13.79765625 -0.59980469 12.946875 -0.55664062 12.0703125 C-0.51732422 11.18085938 -0.47800781 10.29140625 -0.4375 9.375 C-0.39431641 8.4778125 -0.35113281 7.580625 -0.30664062 6.65625 C-0.20043139 4.43765717 -0.09838806 2.2189512 0 0 Z " fill="#DFDFDE" transform="translate(579,396)"/>
</svg>
