<?xml version="1.0" standalone="no"?>
<svg version="1.0" xmlns="http://www.w3.org/2000/svg"
 width="900.000000pt" height="900.000000pt" viewBox="0 0 900.000000 900.000000"
 preserveAspectRatio="xMidYMid meet">
<metadata>
Created by potrace 1.10, written by Peter Selinger 2001-2011
</metadata>
<g transform="translate(0.000000,900.000000) scale(0.100000,-0.100000)"
fill="#000000" stroke="none">
<path d="M1719 7667 c-151 -104 -423 -365 -534 -511 -95 -125 -134 -180 -145
-201 -6 -11 -19 -33 -29 -50 -38 -59 -109 -196 -136 -260 -7 -16 -19 -46 -27
-65 -94 -218 -158 -536 -158 -787 0 -276 86 -626 214 -873 39 -74 80 -147 91
-160 6 -8 15 -22 19 -30 9 -22 93 -136 161 -221 72 -89 216 -236 305 -310 35
-30 73 -62 85 -72 29 -26 232 -160 296 -196 56 -31 178 -91 239 -118 19 -9 47
-22 62 -30 14 -7 32 -13 39 -13 28 0 99 -36 99 -49 0 -8 -30 -73 -66 -145 -59
-118 -94 -184 -188 -358 -15 -29 -46 -79 -67 -112 -22 -32 -39 -61 -39 -64 0
-9 -108 -136 -152 -179 -24 -23 -72 -59 -107 -80 -63 -38 -64 -41 -82 -104 -9
-35 -25 -100 -34 -144 -39 -183 -48 -223 -60 -275 -7 -30 -21 -91 -30 -135
-29 -139 -46 -218 -60 -275 -39 -166 -46 -200 -40 -210 4 -6 128 -10 356 -10
304 0 350 2 355 15 9 23 -40 91 -87 122 -39 25 -50 28 -170 31 -115 4 -129 6
-129 22 0 10 7 23 15 30 8 7 15 16 15 21 0 4 56 102 125 217 91 152 132 211
148 215 12 3 72 11 132 17 121 12 243 33 320 55 165 48 237 77 386 158 52 28
119 74 217 149 77 59 104 75 108 64 3 -8 -1 -25 -10 -38 -9 -12 -16 -29 -16
-36 0 -8 -6 -28 -14 -45 -8 -18 -16 -41 -19 -52 -6 -23 -52 -154 -71 -205 -8
-19 -19 -54 -26 -77 -15 -48 -22 -38 101 -143 150 -128 236 -198 388 -313 64
-49 125 -96 136 -105 11 -10 47 -36 81 -60 l60 -42 315 2 c294 3 314 4 317 21
5 23 -63 89 -121 119 -37 19 -62 22 -198 26 -124 3 -160 8 -176 21 -30 24
-323 418 -323 435 0 18 34 46 90 72 94 45 386 323 475 453 70 102 138 209 172
270 71 131 66 126 101 125 28 -2 85 -25 136 -57 39 -24 156 -107 182 -129 91
-77 300 -273 390 -364 52 -53 222 -189 299 -240 119 -77 315 -174 354 -174 29
0 69 -35 122 -105 47 -63 327 -350 389 -400 14 -11 40 -32 58 -48 l34 -27 319
0 c262 0 321 2 325 14 7 17 -25 69 -57 94 -58 46 -88 54 -226 59 l-134 6 -29
37 c-17 21 -30 40 -30 43 0 4 -12 23 -26 44 -37 56 -107 201 -100 211 3 5 36
17 73 26 75 19 133 35 148 42 6 2 37 -21 70 -52 33 -31 80 -72 105 -92 25 -20
50 -41 55 -47 11 -12 160 -123 190 -142 148 -92 200 -122 282 -164 53 -27 103
-55 111 -62 18 -14 609 -23 630 -8 28 18 -32 93 -108 136 -30 16 -61 20 -207
23 l-173 5 -47 46 c-128 127 -285 345 -343 479 -5 13 -21 46 -34 75 -45 95
-44 99 16 164 29 32 56 60 59 63 7 6 151 179 204 245 128 161 288 309 420 392
49 31 226 111 280 128 33 10 80 24 104 31 25 8 53 14 64 14 27 0 124 29 165
49 61 29 127 106 176 205 25 52 46 101 46 109 0 8 7 33 15 56 19 54 8 74 -60
107 -27 14 -77 40 -110 59 -33 18 -82 45 -110 60 -27 14 -79 42 -115 61 -204
112 -283 142 -465 174 -140 25 -267 25 -381 1 -144 -31 -191 -50 -289 -117
-55 -38 -66 -41 -106 -37 -35 4 -50 1 -69 -15 -22 -18 -25 -28 -23 -75 l2 -55
-72 -69 c-100 -97 -159 -125 -262 -126 -73 0 -87 4 -160 39 -61 30 -99 57
-160 119 -113 112 -139 154 -320 510 -64 127 -121 237 -125 245 -5 8 -11 22
-14 30 -4 8 -42 83 -85 165 -43 83 -106 205 -140 271 -54 109 -82 147 -94 126
-3 -4 -8 -46 -12 -94 -6 -76 -9 -88 -25 -88 -10 0 -28 16 -40 35 -12 20 -27
41 -34 48 -6 6 -32 39 -58 72 -25 33 -58 74 -72 90 -15 17 -70 81 -123 143
-53 61 -102 112 -110 112 -10 0 -13 -34 -13 -160 0 -109 -3 -160 -11 -160 -14
0 -45 24 -134 105 -38 34 -95 82 -125 106 -30 23 -57 45 -60 49 -9 12 -205
156 -243 179 -68 41 -70 15 -12 -170 8 -26 15 -55 15 -65 0 -10 6 -36 14 -59
22 -65 35 -129 28 -137 -4 -3 -52 18 -107 47 -159 85 -419 212 -535 262 -19 9
-48 22 -63 29 -31 15 -63 18 -70 7 -3 -5 4 -33 15 -63 11 -30 22 -66 25 -80 3
-14 9 -29 13 -35 4 -5 13 -26 18 -45 6 -19 20 -60 32 -90 31 -77 31 -95 0 -94
-14 1 -45 6 -70 12 -50 12 -196 42 -405 82 -84 16 -198 29 -207 24 -5 -3 -8
-11 -8 -18 0 -13 120 -202 180 -284 17 -23 28 -47 25 -52 -7 -11 -121 -44
-240 -70 -54 -12 -173 -43 -287 -75 -29 -8 -66 -17 -83 -20 -16 -3 -39 -13
-50 -21 -20 -15 -20 -16 5 -35 36 -28 97 -80 159 -136 l54 -49 -160 -159 c-87
-88 -194 -200 -237 -250 -43 -49 -84 -90 -91 -90 -26 0 -150 165 -224 297
-112 200 -190 405 -233 618 -19 92 -37 91 -77 -7 -18 -43 -39 -93 -47 -111 -8
-18 -14 -41 -14 -52 0 -29 -18 -33 -35 -7 -14 22 -19 40 -45 172 -7 33 -18 88
-26 122 -8 34 -14 78 -14 97 0 37 -27 230 -36 256 -10 29 -83 -93 -161 -270
-28 -62 -30 -65 -44 -65 -24 0 -31 75 -26 280 5 194 12 278 42 455 8 46 11 88
7 92 -13 13 -85 -44 -187 -148 -51 -52 -96 -94 -99 -94 -12 0 -6 135 9 194 47
182 75 257 166 439 32 64 36 92 14 101 -19 7 -72 -3 -107 -20 -15 -8 -37 -14
-48 -14 -20 0 -21 3 -15 58 7 55 25 133 47 197 5 17 13 44 18 60 11 39 29 92
45 130 7 17 22 54 34 83 20 47 119 244 152 302 8 13 61 94 118 179 67 102 104
166 105 186 2 40 -19 40 -75 2z m2873 -3438 c115 -23 234 -71 328 -133 67 -44
221 -201 276 -281 89 -130 194 -287 194 -290 0 -3 133 -202 172 -258 51 -72
168 -215 207 -252 22 -21 41 -46 41 -55 0 -9 -18 -34 -41 -55 -44 -43 -139
-181 -139 -202 0 -7 6 -27 14 -45 8 -18 22 -53 31 -78 17 -46 30 -77 58 -142
21 -49 10 -50 -76 -8 -148 72 -266 167 -507 409 -368 370 -520 474 -810 552
-63 17 -96 20 -215 16 -151 -5 -199 -15 -310 -67 -91 -43 -181 -99 -285 -179
-94 -72 -86 -66 -220 -177 -52 -44 -115 -95 -140 -114 -25 -19 -65 -51 -89
-72 -75 -65 -81 -49 -16 46 25 37 45 68 45 70 0 3 19 33 43 68 23 35 47 73 54
84 7 10 31 50 55 87 24 37 48 76 53 85 12 20 113 174 164 250 20 30 41 61 46
70 6 9 51 71 100 136 135 181 274 314 431 413 34 22 142 72 191 89 116 41 247
53 345 33z m3495 -194 c3 -9 -3 -25 -12 -35 -26 -29 -91 -26 -129 4 -41 34
-26 46 60 46 58 0 76 -3 81 -15z m507 -211 c9 -3 16 -13 16 -21 0 -27 -50
-121 -89 -165 -43 -48 -79 -63 -226 -93 -120 -25 -246 -61 -310 -90 -76 -34
-122 -58 -150 -76 -16 -10 -37 -22 -45 -26 -8 -4 -58 -39 -110 -79 -96 -72
-228 -202 -355 -349 -108 -125 -247 -258 -353 -338 -53 -40 -104 -76 -112 -80
-8 -4 -28 -16 -45 -27 -43 -27 -146 -81 -175 -90 -14 -5 -56 -20 -95 -34 -38
-14 -83 -26 -99 -26 -26 0 -28 2 -22 28 4 15 11 45 15 67 4 22 12 56 18 75 6
19 19 62 28 95 18 62 37 116 61 173 8 18 14 38 14 43 0 18 119 257 153 308
141 212 297 367 482 478 36 21 219 109 255 122 19 7 51 16 70 21 19 4 55 12
80 18 151 37 355 53 830 65 52 2 107 4 122 5 14 1 33 -1 42 -4z"/>
</g>
</svg>
